<?xml version="1.0" encoding="UTF-8"?>
<svg version="1.1" xmlns="http://www.w3.org/2000/svg" width="1056" height="1008">
<path d="M0 0 C348.48 0 696.96 0 1056 0 C1056 332.64 1056 665.28 1056 1008 C707.52 1008 359.04 1008 0 1008 C0 675.36 0 342.72 0 0 Z " fill="#FEFEFE" transform="translate(0,0)"/>
<path d="M0 0 C1.28195224 1.08845002 2.53095533 2.21652898 3.75 3.375 C4.46542969 4.03886719 5.18085937 4.70273438 5.91796875 5.38671875 C11.89648343 11.44755377 15.52659399 18.13875782 19.3203125 25.64453125 C21.85797963 30.65396566 24.62921553 35.5133956 27.4375 40.375 C33.70491894 51.26538127 39.84496849 62.22459142 45.97216797 73.19433594 C47.71984953 76.32105873 49.47062303 79.44602633 51.22265625 82.5703125 C57.27667315 93.36696991 63.30890855 104.17521439 69.3125 115 C74.44299109 124.249503 79.61904068 133.47150117 84.83618164 142.67236328 C89.66113241 151.19234801 94.41158789 159.75292495 99.1574707 168.31713867 C103.2132017 175.62896008 107.3095082 182.91626625 111.4375 190.1875 C116.12672635 198.45055421 120.70762932 206.76653393 125.23779297 215.11767578 C129.3054494 222.59966208 133.48198038 230.01622134 137.68579102 237.42236328 C141.89391167 244.84245234 146.05066677 252.28995336 150.1875 259.75 C156.76435909 271.60876195 163.37921568 283.44572322 170.01171875 295.2734375 C171.76990823 298.41052164 173.52591344 301.54881873 175.28125 304.6875 C180.4151875 313.86562746 185.55472488 323.03997128 190.74389648 332.18701172 C195.48492289 340.54501337 200.16757973 348.92889655 204.75 357.375 C208.97597367 365.16268502 213.26778057 372.9099234 217.625 380.625 C218.14835937 381.553125 218.67171875 382.48125 219.2109375 383.4375 C222.22903662 388.76536886 225.32595078 394.03493371 228.51855469 399.26025391 C232.01130401 405.25830994 232.79225261 411.1730069 231.1328125 417.86328125 C228.53663811 425.43354196 224.13187744 429.72281102 217.375 433.8125 C207.89928341 435.8430107 200.54444451 433.23360274 191.8125 429.5625 C190.21631836 428.9137793 190.21631836 428.9137793 188.58789062 428.25195312 C186.16524649 427.26494996 183.74628511 426.27126571 181.33007812 425.26879883 C175.59557461 422.89259152 169.84635952 420.55253536 164.09765625 418.2109375 C162.93844162 417.73875793 161.77922699 417.26657837 160.58488464 416.78009033 C140.62006664 408.65377507 120.62321899 400.6066477 100.62553406 392.56164551 C92.64897187 389.35196496 84.67645769 386.13250811 76.70818329 382.90230656 C70.86357883 380.53337271 65.01616412 378.17146657 59.16683197 375.81423092 C55.68399936 374.41032122 52.20255946 373.00318866 48.72454834 371.58737183 C3.59803857 353.2256557 -31.85241095 346.36452566 -78.1875 364.8125 C-79.77291136 365.43687034 -81.35852762 366.06072059 -82.94433594 366.68408203 C-94.30526895 371.1608905 -105.6264917 375.73659736 -116.93041992 380.35522461 C-127.26718317 384.57854633 -137.62886651 388.73685797 -148 392.875 C-162.84125637 398.79853691 -177.66497808 404.76452627 -192.47991943 410.75357056 C-195.84927162 412.11460712 -199.21964048 413.47309478 -202.59033203 414.83081055 C-215.64390631 420.08663716 -215.64390631 420.08663716 -228.65298462 425.45126343 C-231.43602221 426.61312075 -234.22367207 427.76363321 -237.01190186 428.91296387 C-238.79661198 429.65491216 -240.57357035 430.41542463 -242.35009766 431.17675781 C-249.37573614 434.06618745 -256.05691028 436.04943854 -263.53515625 433.63818359 C-269.40565444 431.17123219 -273.63015358 426.74450632 -276.37109375 421.04296875 C-278.66399649 414.08273511 -278.59239828 406.90888335 -275.5546875 400.2421875 C-273.68582079 396.56245633 -271.61928444 393.00493773 -269.49804688 389.46582031 C-267.98142065 386.92505604 -266.54440778 384.34522008 -265.109375 381.7578125 C-264.02588383 379.80914554 -262.92868179 377.86876374 -261.828125 375.9296875 C-258.63558587 370.29804848 -255.47487753 364.64861387 -252.3125 359 C-251.70647949 357.91799316 -251.10045898 356.83598633 -250.47607422 355.72119141 C-247.03333639 349.57139107 -243.60311851 343.41489526 -240.1875 337.25 C-236.51608004 330.62472843 -232.79666055 324.02759045 -229.0625 317.4375 C-222.35998901 305.60416971 -215.75516584 293.71754578 -209.16162109 281.82324219 C-198.33008395 262.28497519 -187.44762815 242.77596538 -176.52050781 223.29101562 C-169.90793599 211.49803643 -163.31118909 199.69665716 -156.75 187.875 C-138.59386175 155.16953007 -138.59386175 155.16953007 -129.375 139.125 C-122.77102231 127.62479634 -116.39375262 116.00028768 -110.00408936 104.38027954 C-97.96613105 82.49062549 -85.75483874 60.69287454 -73.4140625 38.97265625 C-71.27526932 35.20440049 -69.17015401 31.41978804 -67.0859375 27.62109375 C-59.3153293 13.5524985 -51.51728134 0.11510509 -35.5 -5.5 C-23.60277717 -8.57084422 -10.22930689 -7.13013074 0 0 Z " fill="#010101" transform="translate(552.25,121.625)"/>
<path d="M0 0 C6.60958534 3.20880284 9.93656891 9.9142724 13.03173828 16.21850586 C13.41469559 16.98223007 13.79765289 17.74595428 14.19221497 18.53282166 C15.450981 21.04805179 16.69823568 23.56880029 17.9453125 26.08984375 C18.83039861 27.86495131 19.71614271 29.63973093 20.60250854 31.41419983 C22.46152879 35.13987487 24.31536519 38.86806483 26.16503906 42.59838867 C28.50156903 47.31056676 30.84638659 52.01855102 33.19459152 56.72492027 C41.33858737 73.04858131 49.47307837 89.37389411 57.28775024 105.85838318 C61.41411964 114.55390259 65.72425562 123.15420042 70.05352783 131.75009155 C76.29279443 144.14346917 82.52156915 156.5406808 88.5 169.0625 C89.12745117 170.37637695 89.12745117 170.37637695 89.76757812 171.71679688 C90.8163573 173.93048921 91.85040328 176.15003224 92.875 178.375 C93.18348877 179.03298584 93.49197754 179.69097168 93.80981445 180.36889648 C95.84550674 184.85732959 96.23765992 187.56026829 94.875 192.375 C92.69416869 195.56236884 91.38702716 196.25331536 87.61743164 197.14916992 C83.28363879 197.41068459 81.4141662 196.64918426 77.62109375 194.61328125 C77.04687683 194.31137375 76.47265991 194.00946625 75.88104248 193.69841003 C74.01518146 192.71184174 72.16434035 191.70010188 70.3125 190.6875 C69.01492829 189.99579986 67.71649646 189.30571096 66.41723633 188.6171875 C57.68610422 183.97237567 49.03767721 179.17363715 40.37988281 174.39404297 C19.92277735 163.20452136 -1.23049645 155.15267706 -24.75 160.875 C-39.05827498 165.27284759 -52.00369351 172.88446951 -65.05859375 180.05078125 C-67.08053988 181.15919953 -69.10268741 182.26725047 -71.125 183.375 C-72.85967529 184.32705322 -72.85967529 184.32705322 -74.62939453 185.29833984 C-77.66580407 186.95988304 -80.71357604 188.59900285 -83.76861572 190.22601318 C-85.52833697 191.16918929 -87.27773555 192.13154437 -89.02685547 193.09423828 C-98.04605775 197.87021521 -98.04605775 197.87021521 -102.26171875 197.359375 C-105.68150139 196.18367892 -107.10991198 195.39763203 -109.125 192.375 C-110.43562648 186.28578841 -109.99819607 182.67657926 -107.00390625 177.15625 C-106.49753883 176.16473938 -106.49753883 176.16473938 -105.98094177 175.15319824 C-104.90169915 173.05022849 -103.79564484 170.96285829 -102.6875 168.875 C-101.97794926 167.50617526 -101.27025229 166.13638792 -100.56445312 164.765625 C-99.14405798 162.01218193 -97.71449421 159.26379814 -96.27832031 156.51855469 C-91.2478543 146.87450583 -86.44820911 137.1139741 -81.76416016 127.29760742 C-69.50095018 101.6026036 -56.60517176 76.21049375 -43.8125 50.77636719 C-40.62721886 44.4364371 -37.48263503 38.08078691 -34.421875 31.6796875 C-33.97858353 30.75277855 -33.97858353 30.75277855 -33.52633667 29.80714417 C-32.33770066 27.31902752 -31.15022079 24.83039557 -29.96875 22.33886719 C-29.08225529 20.4713056 -28.19001053 18.60658042 -27.296875 16.7421875 C-26.7822168 15.66050293 -26.26755859 14.57881836 -25.73730469 13.46435547 C-20.33310269 3.10930215 -12.29889297 -5.56931002 0 0 Z " fill="#FDFDFC" transform="translate(536.125,224.625)"/>
<path d="M0 0 C16.88991624 -0.32477674 33.77857659 -0.57426375 50.67090321 -0.72537041 C58.51532926 -0.79741368 66.35777404 -0.89553036 74.20092773 -1.05615234 C81.04120221 -1.19616872 87.88004171 -1.28612191 94.72170943 -1.31723893 C98.341716 -1.33541878 101.95761969 -1.37777725 105.57630348 -1.48022079 C129.36067122 -2.12806567 129.36067122 -2.12806567 135.16093445 3.06652832 C138.10432528 6.41418345 140.02433838 10.02181806 142 14 C143.75622309 16.31655592 143.75622309 16.31655592 145.41796875 18.078125 C146.1155127 18.8810498 146.1155127 18.8810498 146.82714844 19.70019531 C147.27606445 20.21163086 147.72498047 20.72306641 148.1875 21.25 C152.93428402 26.72611559 157.51317522 32.30803633 162 38 C163.49873916 39.87600798 164.99872005 41.75102468 166.5 43.625 C167.66666667 45.08333333 168.83333333 46.54166667 170 48 C173.38541338 44.78739194 176.22669763 41.25388408 179.0625 37.5625 C183.27387952 32.13738223 187.61146743 26.84900146 192.07324219 21.62866211 C195.48927578 17.62545931 198.79836179 13.55084769 202.05078125 9.4140625 C202.69402344 8.61742187 203.33726562 7.82078125 204 7 C204.51530273 6.09447388 204.51530273 6.09447388 205.04101562 5.1706543 C206.53264033 2.8826292 207.71539911 1.52393649 210 0 C214.96728032 -0.86875288 219.85954147 -0.66103858 224.875 -0.4375 C226.24471215 -0.4023501 227.61451087 -0.37041748 228.984375 -0.34179688 C232.32512834 -0.25945436 235.66145156 -0.1444778 239 0 C235.38121914 4.85068973 231.73850718 9.67835742 228 14.4375 C227.53851562 15.0253125 227.07703125 15.613125 226.6015625 16.21875 C222.21965183 21.77148866 217.71584998 27.22067115 213.2043457 32.66821289 C209.0043994 37.7502344 204.90014657 42.89760222 200.84521484 48.09570312 C189.69307955 62.3777519 189.69307955 62.3777519 185.41479492 66.47705078 C181.84865395 70.78530447 182.27179718 75.4992581 182.29296875 80.8671875 C182.27028679 82.41927414 182.27028679 82.41927414 182.24714661 84.00271606 C182.20430586 87.29369969 182.19543474 90.58376542 182.1875 93.875 C182.164353 96.11200351 182.13898725 98.34898523 182.11132812 100.5859375 C182.0443507 106.05779008 182.0233522 111.52709327 182 117 C174.41 117 166.82 117 159 117 C159.05542969 113.84179688 159.11085938 110.68359375 159.16796875 107.4296875 C159.18421154 104.32486146 159.18147989 101.22058012 159.17700195 98.11572266 C159.18391996 95.98015037 159.21015008 93.84454043 159.25708008 91.70947266 C159.5042581 79.85048198 159.60987897 70.45607208 151.33598328 61.33346558 C150.38926697 60.3595673 149.42912571 59.39851978 148.45532227 58.45170593 C145.95576182 55.95835665 143.75325087 53.21413507 141.5 50.5 C140.59247188 49.43506644 139.68377335 48.37112818 138.7734375 47.30859375 C135.3331056 43.24263566 132.05625122 39.05078854 128.79101562 34.84375 C128.36755859 34.29847656 127.94410156 33.75320313 127.5078125 33.19140625 C127.14316895 32.71904541 126.77852539 32.24668457 126.40283203 31.76000977 C125.70843018 30.88880493 125.70843018 30.88880493 125 30 C124.35893311 28.96077393 123.71786621 27.92154785 123.05737305 26.85083008 C121.29109598 24.75708051 120.31518423 24.07457534 117.62194824 23.43733215 C114.5929353 23.20816735 111.61171326 23.16907616 108.57421875 23.1953125 C107.59634399 23.18169678 106.61846924 23.16808105 105.61096191 23.15405273 C101.97003764 23.11202308 98.32866523 23.12156872 94.6875 23.125 C86.540625 23.08375 78.39375 23.0425 70 23 C70 54.02 70 85.04 70 117 C62.08 117 54.16 117 46 117 C46 85.98 46 54.96 46 23 C30.82 23 15.64 23 0 23 C0 15.41 0 7.82 0 0 Z " fill="#070707" transform="translate(755,638)"/>
<path d="M0 0 C0.67387253 -0.00014603 1.34774506 -0.00029205 2.04203796 -0.0004425 C4.24957601 0.00024918 6.45702764 0.00800642 8.66455078 0.01586914 C10.20297194 0.01773597 11.7413937 0.01915862 13.27981567 0.02015686 C17.31410383 0.0239612 21.34835556 0.03377355 25.38262939 0.04486084 C29.50524401 0.05511989 33.62786456 0.05966408 37.75048828 0.06469727 C45.8286318 0.07539782 53.9067388 0.09297761 61.98486328 0.11352539 C61.98486328 7.70352539 61.98486328 15.29352539 61.98486328 23.11352539 C59.91672363 23.12287109 57.84858398 23.1322168 55.71777344 23.1418457 C48.85246588 23.17574994 41.98745466 23.2313727 35.12238503 23.29742813 C30.96373641 23.33678562 26.80529581 23.36903109 22.64648438 23.38452148 C18.62617214 23.39976606 14.60643225 23.43434756 10.58637619 23.48183441 C9.05959448 23.4965684 7.53273102 23.50456178 6.00587845 23.50540924 C-5.15609278 23.51782499 -14.7497331 24.42470395 -23.32763672 32.23852539 C-24.10751953 32.92172852 -24.88740234 33.60493164 -25.69091797 34.30883789 C-28.93261376 38.00529048 -28.93261376 38.00529048 -33.01513672 47.11352539 C-1.99513672 47.11352539 29.02486328 47.11352539 60.98486328 47.11352539 C60.98486328 54.70352539 60.98486328 62.29352539 60.98486328 70.11352539 C29.96486328 70.11352539 -1.05513672 70.11352539 -33.01513672 70.11352539 C-27.33317316 81.4774525 -22.80166591 88.67819895 -10.72265625 92.72607422 C-3.71751661 94.74219032 3.393374 94.59413664 10.61767578 94.62524414 C12.10555471 94.64212285 13.59341966 94.66027729 15.08126831 94.67964172 C18.96418892 94.72680213 22.84705284 94.7568296 26.73016357 94.78308105 C30.70580235 94.81305971 34.68124632 94.85952976 38.65673828 94.90454102 C46.43269911 94.99018697 54.20863285 95.05617482 61.98486328 95.11352539 C61.98486328 102.37352539 61.98486328 109.63352539 61.98486328 117.11352539 C52.72592908 117.22719417 43.46747008 117.31862158 34.2079916 117.37258625 C29.90686736 117.39850705 25.60625162 117.4335773 21.30541992 117.49072266 C17.14266643 117.54567732 12.98039711 117.57507702 8.81730843 117.58791161 C7.24150041 117.59703927 5.66571415 117.61485778 4.0901165 117.64217567 C-14.0264727 117.94334067 -28.91022648 113.03957856 -42.32763672 100.30102539 C-55.44486018 86.53937415 -58.53723008 70.95386292 -58.29248047 52.59008789 C-58.07434679 46.19367046 -56.80695136 40.87979675 -54.01513672 35.11352539 C-53.59103516 34.18668945 -53.16693359 33.25985352 -52.72998047 32.30493164 C-45.58756539 17.96041557 -33.59059168 7.81970735 -18.51513672 2.61352539 C-12.3272272 0.73629441 -6.46423301 -0.01183925 0 0 Z " fill="#050505" transform="translate(393.01513671875,637.886474609375)"/>
<path d="M0 0 C14.1075 -0.0825 28.215 -0.165 42.75 -0.25 C47.18276367 -0.28641602 51.61552734 -0.32283203 56.18261719 -0.36035156 C61.65087891 -0.37841797 61.65087891 -0.37841797 64.22149658 -0.3817749 C65.99351027 -0.3878643 67.76550876 -0.40182121 69.53741455 -0.42230225 C82.96584141 -0.56958081 95.15087165 -0.21074348 105.95703125 8.86328125 C114.87594301 18.19147386 116.55951319 26.78127197 116.3359375 39.109375 C115.89757844 48.53590624 112.2093057 55.96893206 105.2578125 62.3125 C98.93887 67.03530824 92.15654371 69.91651993 84.3125 70.5625 C83.31863281 70.64628906 82.32476562 70.73007812 81.30078125 70.81640625 C80.54152344 70.87699219 79.78226562 70.93757812 79 71 C84.29457685 76.95289725 89.67674698 82.8129998 95.125 88.625 C99.25010146 93.02811872 103.34303782 97.44084619 107.26953125 102.0234375 C110.44637211 105.65206386 113.76578107 109.15623071 117.05859375 112.6796875 C119 115 119 115 119 117 C90.8965311 119.074842 90.8965311 119.074842 85.05078125 114.85546875 C82.77969552 112.25745797 80.96671334 109.76947828 79.20214844 106.82666016 C76.94136642 103.39141014 73.97856326 100.56782092 71.125 97.625 C69.93623381 96.35787331 68.75003582 95.0883324 67.56640625 93.81640625 C66.68299561 92.87112061 66.68299561 92.87112061 65.78173828 91.90673828 C62.87310834 88.79404989 59.96598502 85.6799886 57.0625 82.5625 C56.55541504 82.01996582 56.04833008 81.47743164 55.52587891 80.91845703 C52.84392427 78.0362123 50.21960334 75.11552326 47.640625 72.140625 C43.09260011 66.91631388 38.30066253 61.92790398 33.52148438 56.91601562 C32.83763672 56.19478516 32.15378906 55.47355469 31.44921875 54.73046875 C30.52629028 53.76210083 30.52629028 53.76210083 29.5847168 52.77416992 C28 51 28 51 26 48 C26.71330475 47.99413376 27.4266095 47.98826752 28.16152954 47.98222351 C34.89986705 47.92420201 41.63789077 47.85207163 48.37590981 47.76428509 C51.83961259 47.7196506 55.30319964 47.68037982 58.76708984 47.65356445 C62.75383392 47.62246237 66.74008676 47.56767551 70.7265625 47.51171875 C72.58312973 47.50213387 72.58312973 47.50213387 74.47720337 47.49235535 C82.72924405 47.42625369 82.72924405 47.42625369 90 44 C92.56889771 40.41843537 92.46154973 36.69307192 92.3984375 32.4140625 C91.79489782 28.75732207 89.87528922 27.17399916 87 25 C86.67 24.67 86.34 24.34 86 24 C84.03712234 23.87636703 82.06984842 23.8220456 80.10327148 23.79467773 C78.82432007 23.77449585 77.54536865 23.75431396 76.22766113 23.73352051 C74.85880691 23.71674918 73.48995112 23.70010594 72.12109375 23.68359375 C70.88363403 23.66494263 69.64617432 23.6462915 68.37121582 23.6270752 C63.72671993 23.55852123 59.08210076 23.49853661 54.4375 23.4375 C44.063125 23.293125 33.68875 23.14875 23 23 C23 54.02 23 85.04 23 117 C15.41 117 7.82 117 0 117 C0 78.39 0 39.78 0 0 Z " fill="#040404" transform="translate(206,638)"/>
<path d="M0 0 C1.0400695 -0.00021904 1.0400695 -0.00021904 2.10115051 -0.0004425 C4.37361879 0.00024943 6.64600322 0.00800789 8.91845703 0.01586914 C10.5017187 0.01773588 12.08498095 0.01915857 13.66824341 0.02015686 C17.82089859 0.0239619 21.97351839 0.03377488 26.12615967 0.04486084 C30.36942059 0.05511836 34.61268727 0.05966376 38.85595703 0.06469727 C47.17107918 0.07539907 55.48616587 0.09297944 63.80126953 0.11352539 C63.80126953 7.70352539 63.80126953 15.29352539 63.80126953 23.11352539 C60.6238916 23.1118335 60.6238916 23.1118335 57.38232422 23.11010742 C50.34138401 23.11073822 43.30087091 23.14439345 36.26011276 23.19380379 C31.99601561 23.22273381 27.73246297 23.24093655 23.46826172 23.23364258 C19.34404384 23.22699911 15.22089717 23.24981506 11.09690094 23.29207993 C9.53268503 23.30312279 7.9683593 23.30399193 6.40413666 23.29394913 C-3.72396749 23.23731981 -11.44109811 24.53186842 -20.19873047 30.11352539 C-20.80775208 30.49179474 -21.41677368 30.87006409 -22.04425049 31.25979614 C-27.9124754 35.49452399 -32.00192487 43.33164388 -34.19873047 50.11352539 C-35.26276299 60.71673321 -34.41160852 70.83428855 -28.35107422 79.86743164 C-22.10008972 87.47979208 -13.98075431 92.52182115 -4.19873047 94.11352539 C-1.96117562 94.22609741 0.27909693 94.28931596 2.51928711 94.31884766 C3.50061615 94.33369705 3.50061615 94.33369705 4.50177002 94.34884644 C6.64974431 94.38026453 8.79774066 94.40514031 10.94580078 94.42993164 C12.44081678 94.45051821 13.93582718 94.47151512 15.43083191 94.49290466 C19.35492402 94.54794954 23.27906711 94.59743592 27.20324707 94.64575195 C31.21187854 94.69609583 35.22043647 94.75171446 39.22900391 94.80688477 C47.08636514 94.9142511 54.94378926 95.01525554 62.80126953 95.11352539 C62.80126953 102.37352539 62.80126953 109.63352539 62.80126953 117.11352539 C53.56907565 117.15883763 44.33695649 117.19547676 35.10467625 117.21714973 C30.81705635 117.22755537 26.52951695 117.24165529 22.24194336 117.2644043 C18.09871067 117.28624812 13.95555507 117.2981182 9.81226921 117.30327988 C8.23714931 117.30695502 6.66203328 117.3141313 5.08694649 117.3249855 C-12.82761474 117.44344868 -28.77437025 113.60502601 -41.95654297 100.64477539 C-55.08354499 85.8254421 -59.35310928 71.65005675 -58.68310547 52.01196289 C-58.24088406 44.92525308 -56.69382227 39.35673687 -53.19873047 33.11352539 C-52.74111328 32.23051758 -52.28349609 31.34750977 -51.81201172 30.43774414 C-43.76017425 15.90031705 -32.04574293 7.32027099 -16.42529297 2.02368164 C-10.89401701 0.46340646 -5.74087438 -0.01021508 0 0 Z " fill="#040504" transform="translate(127.19873046875,637.886474609375)"/>
<path d="M0 0 C3.96863457 1.32287819 4.35049274 2.87054825 6.37109375 6.484375 C6.68922028 7.04712128 7.0073468 7.60986755 7.33511353 8.18966675 C8.37777396 10.03845743 9.40748925 11.89413705 10.4375 13.75 C11.16173593 15.03877914 11.8869233 16.32702404 12.61303711 17.61474609 C14.07143997 20.20338834 15.52543497 22.79442169 16.97558594 25.38769531 C19.64116825 30.15067248 22.34917792 34.88909628 25.0625 39.625 C25.53574707 40.45330322 26.00899414 41.28160645 26.49658203 42.13500977 C32.96028319 53.44486165 39.48483776 64.71975033 46 76 C49.88796612 82.73290644 53.77456832 89.46659278 57.65625 96.203125 C59.66964826 99.69709652 61.68896049 103.18740302 63.71875 106.671875 C64.45834707 107.9479087 65.19793184 109.22394954 65.9375 110.5 C66.54464844 111.5415625 67.15179687 112.583125 67.77734375 113.65625 C69 116 69 116 69 118 C39.96 118 10.92 118 -19 118 C-17 112 -17 112 -8 96 C4.54 96 17.08 96 30 96 C20.84273703 79.55430324 11.54631768 63.22260095 2 47 C-0.98739568 50.54789113 -3.32020567 54.12989026 -5.5390625 58.19921875 C-6.02260445 59.08099037 -6.02260445 59.08099037 -6.51591492 59.98057556 C-7.55663351 61.88053801 -8.59073921 63.78401591 -9.625 65.6875 C-10.34736031 67.00794534 -11.07026441 68.32809333 -11.79370117 69.64794922 C-13.22082559 72.25261532 -14.6458873 74.85838876 -16.06884766 77.46533203 C-17.66883092 80.39556172 -19.27452309 83.32255961 -20.88671875 86.24609375 C-21.29712402 86.99173584 -21.7075293 87.73737793 -22.13037109 88.50561523 C-22.91341966 89.90950714 -23.70922114 91.30636735 -24.51806641 92.69555664 C-26.71339275 96.48891828 -28.52864854 100.23120757 -30.13671875 104.3125 C-34.60436254 114.78039273 -34.60436254 114.78039273 -39 118 C-47.44087852 120.28746039 -56.4414945 119.16651079 -65 118 C-63.71737524 113.82646529 -62.14298847 110.1609821 -60.015625 106.3515625 C-59.4175 105.27648437 -58.819375 104.20140625 -58.203125 103.09375 C-57.55859375 101.9490625 -56.9140625 100.804375 -56.25 99.625 C-55.57272314 98.41417073 -54.89564285 97.20323149 -54.21875 95.9921875 C-49.34082921 87.28704142 -44.32875746 78.66349788 -39.27246094 70.06079102 C-32.9548674 59.2813749 -26.92896712 48.34352096 -20.88769531 37.40771484 C-17.16832489 30.69341422 -13.4088825 24.00153255 -9.65429688 17.30688477 C-6.42340556 11.54496737 -3.20262897 5.77767932 0 0 Z " fill="#030404" transform="translate(530,637)"/>
<path d="M0 0 C7.26 0 14.52 0 22 0 C22.01981934 2.71589355 22.03963867 5.43178711 22.06005859 8.22998047 C22.12685889 17.18673981 22.20449961 26.1433813 22.28752708 35.1000042 C22.33754902 40.53230086 22.38387839 45.96457751 22.421875 51.39697266 C22.45865348 56.63603862 22.50499282 61.87493951 22.55806351 67.1138649 C22.57664712 69.11618286 22.59174029 71.11853625 22.60334396 73.12090683 C22.62013876 75.91785467 22.64915682 78.71442114 22.68115234 81.51123047 C22.68331253 82.34560638 22.68547272 83.1799823 22.68769836 84.03964233 C22.57087086 88.49128457 22.57087086 88.49128457 25 92 C28.07643126 92.33320576 28.07643126 92.33320576 31.74462891 92.31884766 C32.43742447 92.32889328 33.13022003 92.3389389 33.8440094 92.34928894 C36.13818518 92.38022553 38.43224373 92.39718476 40.7265625 92.4140625 C42.31555192 92.43276577 43.90453133 92.45233854 45.49349976 92.4727478 C49.67901718 92.52416409 53.86456683 92.56373877 58.05023193 92.60089111 C62.32002803 92.64087143 66.58968895 92.69199093 70.859375 92.7421875 C79.23949801 92.83905923 87.61967637 92.92239857 96 93 C96 100.59 96 108.18 96 116 C86.08134543 116.04524775 76.16275981 116.08191443 66.24402523 116.10362434 C61.63798616 116.11404584 57.03202159 116.12817516 52.42602539 116.15087891 C47.97806125 116.1726656 43.53016862 116.18458091 39.08215523 116.18975449 C37.38815753 116.19343979 35.69416358 116.20063624 34.00019646 116.21146011 C31.6210584 116.22605257 29.24221297 116.22797472 26.86303711 116.22705078 C26.16819717 116.23424133 25.47335724 116.24143188 24.75746155 116.24884033 C18.38830447 116.22220828 12.69444315 115.1953597 7.8125 110.9375 C7.17957031 110.41027344 6.54664063 109.88304687 5.89453125 109.33984375 C0.63844051 102.84830075 -0.58671936 96.1342716 -0.45410156 87.98217773 C-0.45497772 86.5464315 -0.45497772 86.5464315 -0.45587158 85.0816803 C-0.45310654 81.94860322 -0.42208939 78.81650262 -0.390625 75.68359375 C-0.383157 73.49927795 -0.37746671 71.31495541 -0.37347412 69.13063049 C-0.35826195 63.4045434 -0.31901812 57.67886747 -0.2746582 51.95294189 C-0.23361011 46.10084595 -0.21544276 40.24868304 -0.1953125 34.39648438 C-0.15251956 22.93078064 -0.08220575 11.46548897 0 0 Z " fill="#020302" transform="translate(609,639)"/>
<path d="M0 0 C7.59 0 15.18 0 23 0 C23 38.61 23 77.22 23 117 C15.41 117 7.82 117 0 117 C0 78.39 0 39.78 0 0 Z " fill="#040404" transform="translate(719,638)"/>
<path d="M0 0 C2 1.375 2 1.375 4 3 C4 3.66 4 4.32 4 5 C2.02 5 0.04 5 -2 5 C-1.34 3.35 -0.68 1.7 0 0 Z " fill="#1E1E1E" transform="translate(321,750)"/>
</svg>
