<?xml version="1.0" standalone="no"?>
<!DOCTYPE svg PUBLIC "-//W3C//DTD SVG 20010904//EN"
 "http://www.w3.org/TR/2001/REC-SVG-20010904/DTD/svg10.dtd">
<svg version="1.0" xmlns="http://www.w3.org/2000/svg"
 width="2048.000000pt" height="2048.000000pt" viewBox="0 0 2048.000000 2048.000000"
 preserveAspectRatio="xMidYMid meet">

<g transform="translate(0.000000,2048.000000) scale(0.100000,-0.100000)"
fill="#000000" stroke="none">
<path d="M5454 17469 c-500 -36 -922 -165 -1262 -386 -64 -41 -145 -98 -181
-126 -113 -90 -363 -346 -416 -427 -27 -41 -67 -100 -90 -130 -48 -64 -129
-198 -174 -288 -30 -59 -44 -94 -113 -277 -104 -276 -191 -692 -230 -1100 -16
-157 -23 -8350 -8 -8720 15 -383 33 -550 89 -826 61 -302 158 -589 278 -824
152 -299 272 -465 492 -686 141 -140 261 -226 511 -367 69 -38 266 -126 340
-152 83 -28 318 -85 470 -114 324 -61 781 -63 1160 -5 390 59 644 119 1080
254 105 33 457 156 565 197 279 108 409 160 436 173 16 9 100 44 187 80 148
60 457 194 494 215 9 5 74 34 145 64 146 62 194 83 346 155 60 28 110 51 113
51 8 0 315 145 549 259 132 65 287 140 345 167 57 27 141 68 185 91 44 23 170
86 280 140 299 146 927 463 1120 566 93 49 253 132 355 183 102 51 212 108
245 127 33 18 128 68 210 112 83 43 168 88 190 100 22 12 99 53 170 90 72 38
187 101 256 141 70 40 178 98 240 129 63 31 119 61 124 65 6 5 57 34 115 66
58 31 146 79 195 107 50 27 119 65 155 84 36 19 108 59 160 88 52 29 115 64
140 77 112 62 388 222 412 239 14 11 28 19 31 19 6 0 236 129 472 264 94 54
226 129 295 168 111 63 235 134 281 163 10 5 61 37 115 69 642 385 781 471
1119 694 329 218 443 299 544 391 266 239 401 415 524 676 101 216 148 373
162 535 3 41 8 91 10 112 8 69 -14 308 -39 431 -34 164 -54 221 -136 389 -127
262 -291 476 -514 671 -39 34 -76 69 -83 78 -27 36 -344 253 -703 482 -52 33
-131 84 -175 112 -44 29 -138 87 -210 130 -71 43 -233 141 -360 218 -233 142
-281 170 -575 339 -91 52 -206 119 -257 149 -218 128 -367 214 -377 218 -11 4
-263 145 -401 224 -38 22 -99 56 -135 75 -36 19 -82 46 -102 59 -21 12 -40 23
-44 23 -3 0 -43 23 -89 50 -46 28 -85 50 -89 50 -6 0 -252 133 -513 277 -84
46 -181 98 -215 117 -210 110 -304 160 -478 254 -229 124 -256 138 -775 407
-93 48 -208 108 -255 133 -86 47 -1077 541 -1470 735 -283 139 -697 337 -824
394 -56 25 -170 78 -255 119 -84 41 -155 74 -158 74 -2 0 -92 40 -201 89 -108
49 -237 105 -287 126 -49 21 -121 52 -160 70 -38 18 -101 44 -140 58 -38 14
-97 37 -130 52 -33 15 -105 45 -160 67 -55 22 -113 46 -130 53 -16 7 -43 18
-60 23 -16 6 -84 31 -150 57 -282 109 -485 184 -555 205 -41 12 -156 46 -255
75 -314 94 -595 158 -825 189 -63 9 -146 20 -185 26 -202 28 -523 36 -761 19z
m1588 -5601 c8 -670 7 -748 -10 -749 -10 -1 -337 -2 -728 -3 l-711 -1 -49 -30
c-34 -21 -56 -44 -72 -75 l-22 -45 2 -650 c3 -733 0 -699 81 -753 l41 -27 733
-3 733 -2 0 -440 0 -440 -832 0 c-521 0 -857 4 -896 10 -195 32 -368 123 -497
262 -109 117 -168 219 -211 365 l-26 88 1 930 0 930 25 99 c56 216 203 415
404 543 63 40 239 101 327 113 33 4 430 8 883 9 l822 1 2 -132z m1238 -1049
l5 -1175 25 -37 c47 -70 77 -77 323 -77 164 0 226 3 251 14 35 15 78 65 92
106 4 14 8 547 9 1185 l2 1160 438 0 439 0 0 -2005 1 -2005 -23 -83 c-73 -266
-250 -478 -495 -592 -135 -62 -217 -72 -665 -77 l-402 -5 2 440 3 440 280 5
c313 5 314 5 378 76 45 50 49 77 45 291 l-3 165 -430 6 c-243 4 -450 11 -475
17 -155 36 -288 110 -401 221 -128 128 -206 257 -252 421 -21 74 -21 90 -24
1383 l-3 1307 437 -2 438 -3 5 -1176z m3663 1166 c125 -22 297 -87 338 -128 8
-7 34 -27 59 -44 58 -40 157 -144 197 -208 52 -81 110 -224 130 -315 17 -79
18 -152 18 -980 0 -892 0 -895 -22 -982 -46 -178 -167 -372 -300 -480 -120
-97 -181 -128 -338 -170 -74 -20 -111 -22 -502 -25 l-423 -5 -1 -666 c-1 -367
-2 -684 -2 -704 -1 -34 -4 -38 -26 -38 -14 0 -209 -3 -433 -7 l-406 -6 -6 54
c-4 48 -3 3660 2 4417 l2 302 813 0 c687 0 826 -2 900 -15z m2906 -13 c93 -25
231 -87 273 -123 15 -13 46 -37 68 -54 123 -89 257 -305 295 -475 26 -115 33
-593 11 -713 -27 -141 -88 -288 -157 -375 -141 -181 -287 -278 -503 -337 -83
-23 -109 -25 -286 -25 -107 0 -293 -3 -412 -7 l-218 -6 0 -78 c0 -109 27 -180
83 -217 l41 -27 735 -5 736 -5 3 -437 2 -438 -839 0 c-894 0 -917 1 -1050 50
-134 49 -290 161 -386 277 -73 89 -148 243 -174 360 -21 89 -21 115 -21 985 0
491 2 902 5 913 38 181 90 301 184 426 87 114 232 222 381 282 134 53 171 56
680 53 442 -2 469 -4 549 -24z"/>
<path d="M11100 10324 l0 -794 284 0 c177 0 295 4 313 11 15 5 40 22 56 37 56
53 57 68 57 741 0 414 -4 629 -11 656 -13 49 -51 100 -87 119 -20 10 -99 15
-319 18 l-293 5 0 -793z"/>
<path d="M14093 11110 c-68 -6 -104 -26 -140 -80 -25 -35 -28 -64 -24 -217 l1
-53 283 0 c314 0 335 4 390 69 23 28 27 42 27 94 0 80 -23 123 -84 161 -47 29
-47 29 -219 30 -95 1 -200 -1 -234 -4z"/>
</g>
</svg>
