<?xml version="1.0" encoding="UTF-8"?>
<svg version="1.1" xmlns="http://www.w3.org/2000/svg" width="1504" height="704">
<path d="M0 0 C496.32 0 992.64 0 1504 0 C1504 232.32 1504 464.64 1504 704 C1007.68 704 511.36 704 0 704 C0 471.68 0 239.36 0 0 Z " fill="#FEFEFE" transform="translate(0,0)"/>
<path d="M0 0 C1.26005859 -0.020625 2.52011719 -0.04125 3.81835938 -0.0625 C18.46078444 -0.12303716 31.64868716 2.87806423 42.4375 13.3125 C48.9375 20.27868852 48.9375 20.27868852 48.9375 24.25 C52.48201263 23.06849579 52.9651779 22.11393729 55.0625 19.125 C62.87691402 8.80407582 74.13102518 2.13039975 86.9375 0.25 C91.3787232 -0.04719144 95.80003206 -0.07488166 100.25 -0.0625 C101.39662109 -0.07861328 102.54324219 -0.09472656 103.72460938 -0.11132812 C118.61826014 -0.1197569 131.91065053 3.67147246 142.90234375 14.0234375 C153.52037823 25.6400971 156.10015112 39.87337775 156.05102539 55.03857422 C156.05117142 56.21963242 156.05131744 57.40069061 156.0514679 58.61753845 C156.05089217 61.84230442 156.04588996 65.06702654 156.03889394 68.29178381 C156.03262658 71.66702425 156.03205393 75.04226563 156.03086853 78.41751099 C156.02776517 84.80281833 156.01956523 91.18810847 156.00951904 97.57340825 C155.99832696 104.84547435 155.99283966 112.11754129 155.98782361 119.38961387 C155.97738176 134.34308706 155.95904869 149.29653792 155.9375 164.25 C141.4175 164.25 126.8975 164.25 111.9375 164.25 C111.91562622 159.66399902 111.91562622 159.66399902 111.89331055 154.98535156 C111.84283299 144.85118384 111.77621488 134.71716764 111.70178509 124.58314896 C111.65717646 118.44265318 111.61789943 112.30222231 111.59106445 106.16162109 C111.56493662 100.22870287 111.52446738 94.29603566 111.47431374 88.36327362 C111.45770899 86.10686124 111.44615512 83.8504055 111.43988609 81.59394073 C112.03717892 60.07385477 112.03717892 60.07385477 102.9375 41.25 C95.59442212 35.70225614 87.82495164 35.42303926 78.9375 36.25 C71.02575871 38.59929202 65.7995362 43.24617512 61.7578125 50.3125 C55.64907374 62.79751352 56.59865936 76.78767173 56.5234375 90.32421875 C56.50470261 92.46084827 56.48512751 94.59747058 56.4647522 96.73408508 C56.41367008 102.32510094 56.37391704 107.91614072 56.33660889 113.50726318 C56.28933731 120.23311047 56.22784298 126.95884127 56.16876221 133.6845932 C56.08084199 143.87301449 56.01086861 154.06141676 55.9375 164.25 C41.0875 164.25 26.2375 164.25 10.9375 164.25 C10.90011719 156.88171875 10.86273437 149.5134375 10.82421875 141.921875 C10.79392109 137.23695636 10.76276137 132.55207489 10.72851562 127.8671875 C10.67431368 120.44110041 10.62319879 113.01508683 10.59106445 105.58886719 C10.56493888 99.59759554 10.52447119 93.60657257 10.47431374 87.61545563 C10.45770748 85.33671425 10.44615454 83.05792992 10.43988609 80.77913666 C11.04658381 59.17235116 11.04658381 59.17235116 1.9375 40.25 C-5.4817141 35.55621149 -13.4875729 35.45362448 -22.0625 36.25 C-29.63268776 38.41002691 -34.08507664 42.60770298 -38.0625 49.25 C-38.619375 50.1575 -39.17625 51.065 -39.75 52 C-44.73702705 64.3488289 -44.5354927 76.53702117 -44.57421875 89.640625 C-44.59108885 91.79824836 -44.60924218 93.95586203 -44.62861633 96.11346436 C-44.67586933 101.75544201 -44.70583796 107.39738037 -44.73205566 113.03948975 C-44.76726131 119.82879073 -44.82420304 126.61794089 -44.87744904 133.40711975 C-44.95567286 143.68805996 -45.00649801 153.96880667 -45.0625 164.25 C-59.9125 164.25 -74.7625 164.25 -90.0625 164.25 C-90.0625 110.79 -90.0625 57.33 -90.0625 2.25 C-78.8425 2.25 -67.6225 2.25 -56.0625 2.25 C-52.59698276 11.49137931 -52.59698276 11.49137931 -51.375 15.5 C-51.12363281 16.30953125 -50.87226563 17.1190625 -50.61328125 17.953125 C-50.0625 20.25 -50.0625 20.25 -50.0625 24.25 C-48.13119395 22.39594619 -46.28551468 20.52270496 -44.58984375 18.44921875 C-32.51784092 3.75162665 -18.2622419 0.07315871 0 0 Z " fill="#030303" transform="translate(516.0625,293.75)"/>
<path d="M0 0 C2.14362921 0.0161267 4.28538142 0.00003276 6.42895508 -0.01904297 C25.98653981 -0.04914996 43.6792368 6.38808951 58.1184082 19.73876953 C76.19736636 38.84282325 81.37472399 62.70234449 80.80200195 88.14501953 C79.95977469 111.61311074 72.89089891 133.14909569 55.5793457 149.39111328 C39.78857663 163.80289396 18.5062689 168.55071249 -2.40112305 167.74658203 C-14.40965852 167.01606855 -25.59532591 164.87447991 -36.4206543 159.39111328 C-37.25725586 158.97216797 -38.09385742 158.55322266 -38.95581055 158.12158203 C-57.72519421 147.79990829 -68.30111129 130.36881421 -74.4206543 110.39111328 C-79.99123198 88.24634769 -78.01832929 61.12649134 -68.4206543 40.39111328 C-68.00170898 39.46041016 -67.58276367 38.52970703 -67.15112305 37.57080078 C-59.16154633 21.40744962 -44.32403626 9.27228996 -27.4206543 3.39111328 C-18.30108623 0.60186041 -9.4614013 -0.0844478 0 0 Z " fill="#020202" transform="translate(1236.420654296875,293.60888671875)"/>
<path d="M0 0 C111.06264916 0 111.06264916 0 130.75 18.25 C142.96391903 31.37190821 146.17811989 45.89679301 146.1875 63.25 C146.19974609 64.42691406 146.21199219 65.60382813 146.22460938 66.81640625 C146.25402555 84.44650182 141.14867438 101.64765791 128.8125 114.6875 C105.46573074 136.82398523 75.80275346 135 45 135 C45 159.75 45 184.5 45 210 C30.15 210 15.3 210 0 210 C0 140.7 0 71.4 0 0 Z " fill="#020202" transform="translate(876,248)"/>
<path d="M0 0 C10.09980881 9.18164438 15.6690379 22.57331877 16.90364647 36.07015228 C16.99749119 39.12150201 17.00471915 42.1592989 16.97338867 45.21191406 C16.97382675 46.35483414 16.97426483 47.49775421 16.97471619 48.67530823 C16.97264586 52.40871983 16.94939786 56.14166799 16.92578125 59.875 C16.92017906 62.48101557 16.91591191 65.08703433 16.91291809 67.6930542 C16.90364554 73.8232367 16.87909777 79.95325602 16.84886962 86.08336711 C16.81517509 93.07018822 16.79880203 100.0570177 16.78378332 107.04390001 C16.75254301 121.39915992 16.69759204 135.75422817 16.6328125 150.109375 C6.4028125 150.109375 -3.8271875 150.109375 -14.3671875 150.109375 C-15.6665625 147.5725 -16.9659375 145.035625 -18.3046875 142.421875 C-18.71323975 141.63208252 -19.12179199 140.84229004 -19.54272461 140.02856445 C-21.3740412 136.40849874 -22.86018213 133.18956108 -23.3671875 129.109375 C-24.0271875 129.769375 -24.6871875 130.429375 -25.3671875 131.109375 C-25.82738281 131.56441406 -26.28757812 132.01945313 -26.76171875 132.48828125 C-27.90487519 133.6425633 -29.02507402 134.81977574 -30.12890625 136.01171875 C-39.85416232 146.28932202 -52.70745201 152.30460461 -66.93164062 153.28637695 C-83.81767967 153.66725364 -99.67692161 153.55658672 -113.0546875 141.734375 C-113.8178125 140.868125 -114.5809375 140.001875 -115.3671875 139.109375 C-115.84800781 138.60792969 -116.32882812 138.10648438 -116.82421875 137.58984375 C-127.34966517 126.21170294 -128.88441716 112.94323126 -128.55078125 98.06640625 C-127.92762734 84.63545066 -122.2499781 74.21859254 -112.3671875 65.109375 C-103.75283244 58.65566965 -92.94978728 54.07196623 -82.3671875 52.109375 C-81.47257813 51.93664062 -80.57796875 51.76390625 -79.65625 51.5859375 C-62.74084095 48.64597976 -45.47618149 48.95134109 -28.3671875 49.109375 C-28.72857975 35.85879152 -28.72857975 35.85879152 -34.5546875 24.296875 C-40.53975075 19.64182581 -46.63433824 18.59521375 -53.9921875 18.734375 C-54.77489014 18.74380127 -55.55759277 18.75322754 -56.36401367 18.76293945 C-69.52517388 19.09930553 -81.91209856 22.8005316 -93.6171875 28.765625 C-96.3671875 30.109375 -96.3671875 30.109375 -98.3671875 30.109375 C-100.39485726 26.34549635 -102.40643104 22.57359027 -104.40356445 18.79345703 C-105.08507875 17.5089088 -105.77092623 16.22664975 -106.46118164 14.94677734 C-107.45308225 13.10579839 -108.42906757 11.25712792 -109.40234375 9.40625 C-109.994104 8.29604492 -110.58586426 7.18583984 -111.19555664 6.04199219 C-112.3671875 3.109375 -112.3671875 3.109375 -112.23999023 0.82495117 C-110.6829543 -2.23554995 -107.39894888 -3.09293669 -104.3671875 -4.328125 C-103.65457764 -4.6274292 -102.94196777 -4.9267334 -102.20776367 -5.23510742 C-70.85858069 -18.04529787 -28.09770839 -22.44107403 0 0 Z " fill="#030303" transform="translate(823.3671875,307.890625)"/>
<path d="M0 0 C-1.46143823 8.16116408 -4.42978354 15.4353399 -7.625 23.0625 C-8.14650315 24.32198849 -8.66734162 25.58175241 -9.1875 26.84179688 C-10.4518442 29.89729536 -11.72280928 32.94985432 -13 36 C-17.96797286 34.39107856 -22.86759868 32.69311672 -27.71630859 30.75439453 C-42.49101716 24.91481286 -61.10822118 20.10551852 -76.75 25.5625 C-81.8654416 28.02745372 -85.47273342 31.94546684 -88 37 C-89.02746014 47.70719422 -89.02746014 47.70719422 -84.74023438 57.14868164 C-75.77345288 66.68783766 -62.01886087 71.6267249 -50.44580078 77.23608398 C-29.59602828 87.37016776 -8.38510635 98.68256897 0 121.8125 C4.64503059 138.80271256 2.72183527 156.8066592 -5.66796875 172.15625 C-11.37335729 181.93001759 -19.13321109 188.65256533 -29 194 C-29.79277344 194.46019531 -30.58554687 194.92039062 -31.40234375 195.39453125 C-52.60556909 206.48184181 -81.09598303 204.9536696 -104 201 C-104.69351563 200.88172852 -105.38703125 200.76345703 -106.1015625 200.64160156 C-117.59295179 198.58882157 -126.23257628 194.38371186 -137 189 C-137 175.47 -137 161.94 -137 148 C-133.40005875 149.19998042 -129.97738446 150.36535613 -126.49609375 151.8046875 C-109.46683097 158.77632019 -93.57021297 164.37210561 -74.9375 164.3125 C-73.92623047 164.32861328 -72.91496094 164.34472656 -71.87304688 164.36132812 C-62.52486846 164.36734756 -54.53618615 162.99577916 -47.375 156.6953125 C-42.97234133 151.26703448 -43.31945376 144.62455775 -44 138 C-46.05011272 130.62204944 -51.33399061 126.14598834 -57.76098633 122.38378906 C-61.02643688 120.64517332 -64.31756215 118.96982028 -67.625 117.3125 C-68.83028708 116.69741298 -70.03495123 116.08110392 -71.23901367 115.46362305 C-76.79263225 112.61979285 -82.36605579 109.81664805 -87.94921875 107.03125 C-108.29187695 96.78461805 -124.83332961 84.71630655 -132.87890625 62.58203125 C-137.07941633 45.98561031 -134.38286304 27.72553818 -125.8125 13.0625 C-114.9664964 -2.45169787 -98.02084992 -10.21281863 -79.86328125 -13.58203125 C-52.20873804 -16.5739788 -25.19039957 -11.5711998 0 0 Z " fill="#020202" transform="translate(323,258)"/>
<path d="M0 0 C-0.54129345 14.05938503 -1.5396553 28.00621148 -3 42 C-3.71953857 41.97381592 -4.43907715 41.94763184 -5.18041992 41.9206543 C-24.30132642 40.85898099 -24.30132642 40.85898099 -42 47 C-43.15435547 47.68642578 -43.15435547 47.68642578 -44.33203125 48.38671875 C-52.55981749 53.95841073 -57.56566787 61.91170877 -59.52110291 71.57522583 C-60.09658516 75.69071697 -60.17585741 79.70101473 -60.20532227 83.85107422 C-60.21522186 84.72001816 -60.22512146 85.5889621 -60.23532104 86.48423767 C-60.26677289 89.34102707 -60.29162863 92.19783307 -60.31640625 95.0546875 C-60.33698988 97.04151834 -60.35798672 99.02834494 -60.37937927 101.01516724 C-60.43445442 106.23307857 -60.48392766 111.45102847 -60.53222656 116.66900635 C-60.59140263 122.93582355 -60.6575502 129.2025706 -60.72252655 135.46932983 C-60.8203528 144.97951021 -60.9093342 154.48973652 -61 164 C-75.52 164 -90.04 164 -105 164 C-105 110.87 -105 57.74 -105 3 C-93.78 3 -82.56 3 -71 3 C-70.030625 6.34125 -69.06125 9.6825 -68.0625 13.125 C-67.75836182 14.16672363 -67.45422363 15.20844727 -67.14086914 16.28173828 C-65.82989942 20.83618638 -64.62648393 25.28947523 -64 30 C-63.34 30 -62.68 30 -62 30 C-61.79375 29.34 -61.5875 28.68 -61.375 28 C-55.25328397 14.64352865 -43.14097286 6.46118353 -30 1 C-20.54990183 -2.44198698 -9.75778794 -1.55181106 0 0 Z " fill="#020202" transform="translate(1152,294)"/>
<path d="M0 0 C14.52 0 29.04 0 44 0 C44 53.13 44 106.26 44 161 C29.48 161 14.96 161 0 161 C0 107.87 0 54.74 0 0 Z " fill="#010101" transform="translate(348,297)"/>
<path d="M0 0 C0.89046952 27.74155047 -1.89513751 54.80997332 -21.05078125 76.30078125 C-30.55945672 85.52294296 -43.34070828 90.80985849 -56 94 C-57.23363281 94.31904297 -57.23363281 94.31904297 -58.4921875 94.64453125 C-67.30624928 96.76417587 -76.02667493 97.14424372 -85.0625 97.0625 C-86.02349609 97.05798828 -86.98449219 97.05347656 -87.97460938 97.04882812 C-90.31647422 97.03717706 -92.65820181 97.02082025 -95 97 C-95.7139166 70.09815794 -94.21838143 42.89828334 -74.75 22.25 C-62.30844285 10.4410644 -47.42843553 5.29518102 -31 2 C-29.89527344 1.77183594 -28.79054688 1.54367188 -27.65234375 1.30859375 C-18.4531502 -0.35447158 -9.30978683 -0.1880765 0 0 Z " fill="#030303" transform="translate(443,177)"/>
<path d="M0 0 C0.79575439 0.00757324 1.59150879 0.01514648 2.41137695 0.02294922 C8.38324214 0.19068792 13.11371517 1.00304186 18.125 4.4375 C18.74375 4.82679688 19.3625 5.21609375 20 5.6171875 C28.71114837 11.96280851 31.70067023 22.63596269 33.35327148 32.79711914 C35.73842328 49.88786074 35.55978826 71.28286152 25.3125 85.875 C20.82358708 91.3137081 15.94679038 94.59464668 9.125 96.4375 C-1.34371577 97.32713395 -10.94353494 97.30901159 -19.8203125 91.0703125 C-28.05385851 83.90605818 -31.99724789 72.26743414 -32.76220703 61.63085938 C-34.61673877 25.56784386 -34.61673877 25.56784386 -24.875 11.4375 C-17.76260063 3.60316536 -10.58895392 -0.14066507 0 0 Z " fill="#FCFCFC" transform="translate(1237.875,328.5625)"/>
<path d="M0 0 C40.73722628 0 40.73722628 0 50 9 C56.32410716 16.98834589 56.83348307 25.13197206 56 35 C54.54855732 42.21013957 52.73992628 49.0971463 47 54 C31.82657471 63.28388836 18.34964354 62 0 62 C0 41.54 0 21.08 0 0 Z " fill="#FDFDFD" transform="translate(921,284)"/>
<path d="M0 0 C0.14728458 3.62456014 0.23472226 7.24833521 0.3125 10.875 C0.35439453 11.88820313 0.39628906 12.90140625 0.43945312 13.9453125 C0.5846765 23.00725141 -2.25018829 28.79440561 -7.125 36.25 C-15.61856658 44.37428107 -24.70294378 46.28928685 -36.09765625 46.1484375 C-42.91663991 45.79968733 -47.22041291 43.88821407 -52 39 C-55.49727297 32.93806018 -55.93180228 27.37008048 -54.49609375 20.63671875 C-52.39321691 13.48693751 -49.12254877 8.94380006 -42.625 5.3125 C-28.98231515 -0.88872039 -14.64424532 -0.39134272 0 0 Z " fill="#FAFAFA" transform="translate(795,383)"/>
</svg>
