<?xml version="1.0" standalone="no"?>
<!DOCTYPE svg PUBLIC "-//W3C//DTD SVG 20010904//EN"
 "http://www.w3.org/TR/2001/REC-SVG-20010904/DTD/svg10.dtd">
<svg version="1.0" xmlns="http://www.w3.org/2000/svg"
 width="2816.000000pt" height="1536.000000pt" viewBox="0 0 2816.000000 1536.000000"
 preserveAspectRatio="xMidYMid meet">

<g transform="translate(0.000000,1536.000000) scale(0.100000,-0.100000)"
fill="#000000" stroke="none">
<path d="M4439 10929 c-242 -17 -555 -80 -719 -144 -90 -35 -110 -50 -110 -84
0 -56 72 -69 459 -81 173 -5 362 -14 420 -20 375 -37 574 -123 611 -262 43
-158 -88 -422 -339 -682 -134 -138 -448 -425 -545 -498 -215 -161 -417 -343
-431 -388 -11 -36 11 -50 82 -50 98 0 311 80 458 172 353 222 489 319 674 481
191 168 325 310 444 468 246 328 281 657 89 845 -91 91 -186 133 -431 194
-222 54 -405 68 -662 49z"/>
<path d="M5975 9183 c-312 -9 -559 -59 -695 -141 -86 -53 -184 -154 -221 -228
-63 -126 -48 -292 40 -480 67 -140 109 -201 375 -545 66 -85 154 -199 196
-254 42 -55 116 -152 165 -215 224 -290 270 -407 203 -518 -44 -73 -187 -137
-358 -161 -105 -15 -336 -29 -664 -41 -324 -11 -565 -27 -617 -41 -81 -21 -89
-80 -16 -123 75 -44 346 -100 742 -153 181 -24 611 -24 778 0 302 45 524 138
643 270 81 90 142 252 127 342 -13 88 -30 138 -70 218 -88 177 -205 334 -673
907 -141 172 -226 295 -261 380 -105 249 -65 346 168 405 104 26 192 34 568
50 474 19 546 30 575 85 32 59 -100 140 -294 180 -183 38 -527 69 -711 63z"/>
<path d="M3325 8469 c-143 -16 -288 -40 -390 -65 -173 -43 -319 -86 -357 -105
-75 -38 -100 -94 -55 -123 59 -40 139 -47 602 -56 248 -5 487 -14 532 -20 256
-33 440 -127 499 -255 44 -94 29 -264 -35 -400 -89 -188 -385 -511 -659 -718
-183 -138 -469 -305 -609 -356 -199 -73 -236 -50 -198 126 34 162 84 274 270
603 137 242 233 432 273 540 42 116 38 190 -11 190 -29 0 -102 -47 -143 -91
-81 -88 -333 -434 -476 -654 -257 -396 -565 -978 -649 -1228 -31 -91 -32 -101
-19 -125 20 -35 61 -44 150 -32 143 20 460 120 655 207 54 25 138 61 185 80
100 41 218 103 430 226 418 243 586 364 818 591 326 319 512 606 588 902 49
195 22 325 -96 456 -174 194 -608 321 -1084 317 -78 -1 -177 -6 -221 -10z"/>
<path d="M8365 8421 c-236 -67 -380 -272 -378 -536 1 -149 49 -262 153 -358
74 -69 257 -209 475 -364 216 -154 281 -212 296 -264 18 -57 -6 -103 -66 -130
-42 -19 -67 -20 -471 -19 l-426 2 -26 -24 c-57 -50 -67 -78 -82 -236 -11 -115
0 -156 43 -167 13 -4 236 -5 497 -3 466 3 476 4 545 27 174 57 281 140 347
267 54 102 69 169 69 308 0 137 -12 184 -71 274 -56 88 -137 155 -603 496
-193 142 -233 178 -246 222 -11 38 0 66 36 90 26 18 54 19 460 24 416 5 433 6
459 26 48 35 64 67 79 153 24 133 24 200 1 217 -17 12 -104 14 -525 13 -448 0
-513 -2 -566 -18z"/>
<path d="M10625 8434 c-152 -23 -337 -95 -474 -186 -223 -146 -407 -422 -479
-718 -42 -175 -55 -294 -49 -470 6 -193 31 -308 94 -435 93 -189 313 -331 577
-372 215 -32 492 5 700 96 143 63 337 224 425 356 73 107 156 271 184 360 58
186 72 285 71 500 0 183 -3 208 -27 299 -54 201 -140 330 -285 428 -171 115
-256 139 -512 143 -107 2 -208 1 -225 -1z m358 -372 c75 -35 175 -123 212
-187 45 -76 59 -157 58 -320 -1 -280 -50 -463 -176 -658 -131 -204 -325 -312
-557 -310 -168 1 -302 61 -379 170 -102 141 -123 330 -71 619 25 142 43 200
95 309 131 280 346 419 635 412 106 -3 121 -6 183 -35z"/>
<path d="M12196 8427 c-14 -10 -25 -53 -46 -173 -16 -87 -38 -213 -50 -279
-28 -156 -104 -598 -180 -1045 -33 -195 -69 -406 -81 -468 -16 -89 -18 -116
-9 -128 11 -12 112 -14 690 -14 l679 0 19 24 c14 19 21 48 25 118 4 51 9 102
13 114 3 12 -2 29 -14 44 l-19 23 -451 2 c-248 0 -454 4 -457 7 -5 4 11 98 91
543 14 77 34 192 44 255 10 63 35 210 55 325 53 304 95 566 95 598 0 15 -9 36
-20 47 -18 18 -33 20 -193 20 -127 0 -178 -3 -191 -13z"/>
<path d="M13874 8432 c-20 -13 -32 -47 -44 -127 -6 -44 -32 -190 -57 -325 -24
-135 -51 -281 -58 -325 -8 -44 -54 -309 -104 -590 -135 -764 -128 -715 -106
-731 22 -17 358 -20 399 -4 31 12 28 -3 105 460 35 206 74 436 87 510 59 328
184 1066 184 1087 0 7 -9 22 -20 33 -19 19 -33 20 -197 20 -98 0 -183 -4 -189
-8z"/>
<path d="M14694 8434 c-39 -9 -52 -36 -62 -129 -12 -103 -2 -142 44 -172 26
-17 66 -18 534 -23 l505 -5 55 -26 c120 -57 197 -149 224 -268 24 -107 21
-289 -8 -436 -75 -374 -265 -632 -525 -709 -43 -13 -102 -16 -278 -16 l-223 0
0 28 c0 41 87 554 160 942 31 165 35 220 19 231 -20 12 -356 11 -380 -1 -28
-16 -48 -61 -70 -163 -24 -108 -129 -680 -195 -1060 -46 -261 -47 -268 -28
-288 18 -20 24 -20 514 -16 528 4 548 6 705 59 278 96 453 237 605 491 128
215 200 488 200 764 0 372 -102 577 -353 702 -178 90 -196 92 -857 96 -311 2
-575 1 -586 -1z"/>
<path d="M16922 8431 c-23 -4 -47 -12 -53 -18 -8 -8 -10 -296 -7 -1032 4 -979
4 -1021 22 -1040 17 -19 31 -21 128 -21 109 0 141 8 165 39 12 15 116 196 263
456 31 55 81 145 110 200 68 128 219 396 233 413 11 13 55 -192 182 -843 37
-190 48 -233 66 -247 17 -15 41 -18 129 -18 106 0 109 1 137 28 15 16 47 73
70 128 23 54 84 196 136 314 52 118 146 337 211 485 64 149 137 315 161 370
61 136 275 653 286 689 12 40 2 71 -27 85 -32 14 -106 14 -138 0 -29 -14 -29
-14 -426 -939 -280 -654 -377 -870 -391 -870 -4 0 -10 24 -14 53 -7 53 -25
137 -134 662 -70 333 -75 350 -104 370 -26 18 -183 21 -220 4 -28 -13 -19 3
-162 -264 -65 -121 -185 -341 -267 -488 -82 -147 -156 -283 -165 -302 -9 -19
-20 -35 -25 -35 -4 0 -8 399 -8 886 0 558 -4 892 -10 904 -10 19 -61 41 -89
39 -9 -1 -35 -5 -59 -8z"/>
<path d="M20125 8433 c-236 -37 -471 -168 -627 -347 -138 -159 -215 -294 -282
-497 -54 -162 -67 -239 -73 -416 -6 -192 4 -280 52 -431 80 -251 262 -417 530
-483 80 -19 107 -21 255 -16 190 6 272 23 406 86 109 52 192 111 287 206 133
133 190 218 272 409 89 204 128 396 128 621 0 296 -74 498 -243 665 -149 147
-285 200 -530 205 -80 2 -158 1 -175 -2z m283 -218 c141 -33 256 -114 340
-240 61 -91 88 -171 103 -300 17 -155 -14 -386 -73 -555 -163 -460 -494 -709
-891 -669 -161 16 -267 67 -365 174 -104 113 -150 246 -159 452 -6 144 3 224
43 385 54 218 163 400 334 561 107 101 250 174 388 197 78 13 213 11 280 -5z"/>
<path d="M21625 8421 c-12 -5 -26 -15 -31 -22 -13 -16 -10 -1 -80 -394 -53
-299 -95 -526 -148 -800 -14 -71 -37 -200 -51 -285 -14 -85 -41 -235 -60 -332
-19 -97 -35 -190 -35 -206 0 -47 26 -62 107 -62 115 0 102 -31 189 460 42 234
77 427 79 429 21 20 380 30 415 11 24 -13 35 -32 417 -755 35 -66 71 -126 80
-132 10 -8 46 -13 85 -13 56 0 72 4 89 21 29 29 21 92 -18 156 -41 66 -381
704 -385 722 -2 10 20 19 83 32 197 40 378 165 474 324 45 75 91 218 99 310 8
84 -6 193 -35 269 -42 115 -156 204 -316 248 -73 20 -103 22 -508 25 -236 1
-439 -1 -450 -6z m845 -232 c201 -32 268 -133 229 -344 -40 -220 -196 -349
-462 -385 -117 -15 -572 -13 -585 3 -7 9 -6 33 4 82 8 38 37 194 64 346 27
152 53 284 56 293 5 14 41 16 318 16 171 0 340 -5 376 -11z"/>
<path d="M23513 8420 c-27 -11 -25 -3 -73 -285 -23 -132 -56 -321 -75 -420
-19 -99 -61 -331 -95 -515 -33 -184 -67 -366 -74 -405 -8 -38 -29 -153 -47
-254 l-31 -185 22 -18 c29 -24 171 -26 190 -3 13 16 40 142 95 445 50 280 82
440 89 447 3 3 13 0 22 -8 10 -8 188 -209 396 -447 209 -239 391 -437 404
-443 46 -17 111 -11 138 14 25 22 29 34 27 73 -2 43 1 39 -603 717 -104 116
-188 214 -188 218 0 8 388 360 770 698 282 250 290 259 290 303 0 47 -29 69
-100 76 -37 3 -57 0 -83 -16 -40 -23 -233 -191 -620 -537 -340 -304 -401 -356
-405 -345 -3 8 22 162 107 652 31 179 30 210 -2 233 -24 16 -118 19 -154 5z"/>
<path d="M25358 8414 c-155 -37 -265 -139 -310 -287 -17 -58 -20 -86 -15 -170
6 -123 24 -186 75 -260 21 -31 191 -213 378 -404 381 -391 389 -401 388 -518
0 -44 -6 -81 -17 -101 -24 -46 -78 -89 -142 -113 -53 -20 -74 -21 -428 -21
-205 0 -382 -3 -395 -6 -32 -9 -51 -52 -54 -124 -2 -49 1 -65 15 -74 21 -16
552 -28 762 -16 195 10 271 37 356 127 77 81 103 139 119 264 16 128 -13 261
-78 358 -15 22 -110 125 -212 228 -551 560 -544 552 -545 678 0 52 5 80 21
110 26 50 97 100 164 114 31 7 189 11 410 11 213 0 369 4 385 10 33 12 55 64
55 128 0 86 23 82 -456 81 -321 0 -432 -4 -476 -15z"/>
</g>
</svg>
